<svg viewBox="0 0 17 17" fill="none" xmlns="http://www.w3.org/2000/svg">
<path d="M12.1686 5.66675L4.83028 5.66675C4.2707 5.66675 3.9307 6.283 4.23528 6.75758L7.90445 12.5234C7.96833 12.6244 8.05671 12.7075 8.16136 12.7651C8.26601 12.8227 8.38353 12.853 8.50299 12.853C8.62245 12.853 8.73998 12.8227 8.84462 12.7651C8.94927 12.7075 9.03765 12.6244 9.10153 12.5234L12.7636 6.75758C12.8327 6.65074 12.8717 6.52723 12.8765 6.40009C12.8812 6.27294 12.8516 6.14686 12.7906 6.03516C12.7297 5.92345 12.6398 5.83027 12.5303 5.76543C12.4208 5.70059 12.2959 5.66649 12.1686 5.66675Z" fill="currentColor"/>
</svg>
