<svg viewBox="0 0 23 23" fill="none" xmlns="http://www.w3.org/2000/svg">
<path d="M17.8478 11.467L12.8992 8.46326L15.3939 2.19307C15.481 2.00684 15.5215 1.80053 15.5117 1.59343C15.5019 1.38634 15.4421 1.18523 15.3379 1.00894C15.2336 0.832641 15.0884 0.686916 14.9158 0.585398C14.7431 0.483881 14.5487 0.429889 14.3508 0.428475C14.0876 0.427438 13.8318 0.519597 13.625 0.689988L13.5433 0.763309L4.79179 9.43965C4.66023 9.5705 4.55955 9.73161 4.49772 9.91025C4.43589 10.0889 4.41461 10.2801 4.43555 10.4689C4.45649 10.6576 4.51909 10.8387 4.61839 10.9977C4.71768 11.1567 4.85096 11.2893 5.00766 11.3851L9.9575 14.3913L7.43357 20.7336C7.32947 20.9923 7.31368 21.2806 7.38888 21.5501C7.46407 21.8196 7.62565 22.0537 7.84639 22.2129C8.06713 22.3722 8.33355 22.447 8.60076 22.4246C8.86797 22.4022 9.11965 22.284 9.31339 22.09L18.0649 13.4112C18.1962 13.2803 18.2966 13.1192 18.3582 12.9406C18.4198 12.762 18.4409 12.5709 18.4198 12.3824C18.3988 12.1938 18.3361 12.0129 18.2369 11.8541C18.1376 11.6952 18.0044 11.5627 17.8478 11.467Z" fill="currentColor"/>
</svg>
