<svg viewBox="0 0 23 23" fill="none" xmlns="http://www.w3.org/2000/svg">
<path d="M2.42773 17.0421C2.42773 17.675 2.67796 18.282 3.12336 18.7295C3.56875 19.177 4.17285 19.4285 4.80273 19.4285H19.0527C19.6826 19.4285 20.2867 19.177 20.7321 18.7295C21.1775 18.282 21.4277 17.675 21.4277 17.0421V10.4796H2.42773V17.0421ZM5.22684 13.8035C5.22684 13.4644 5.36089 13.1392 5.5995 12.8995C5.8381 12.6597 6.16172 12.5251 6.49916 12.5251H8.53488C8.87232 12.5251 9.19594 12.6597 9.43454 12.8995C9.67315 13.1392 9.8072 13.4644 9.8072 13.8035V14.6557C9.8072 14.9948 9.67315 15.32 9.43454 15.5597C9.19594 15.7995 8.87232 15.9341 8.53488 15.9341H6.49916C6.16172 15.9341 5.8381 15.7995 5.5995 15.5597C5.36089 15.32 5.22684 14.9948 5.22684 14.6557V13.8035ZM19.0527 4.42847H4.80273C4.17285 4.42847 3.56875 4.67989 3.12336 5.12742C2.67796 5.57495 2.42773 6.18193 2.42773 6.81483V7.92279H21.4277V6.81483C21.4277 6.18193 21.1775 5.57495 20.7321 5.12742C20.2867 4.67989 19.6826 4.42847 19.0527 4.42847Z" fill="currentColor"/>
</svg>
