<svg viewBox="0 0 24 24" fill="none" xmlns="http://www.w3.org/2000/svg">
<path d="M11.9966 15.915C11.4956 15.915 11.0681 15.7369 10.7141 15.3806C10.3601 15.0244 10.1831 14.5958 10.1831 14.0948C10.1831 13.5938 10.3612 13.1663 10.7175 12.8123C11.0737 12.4583 11.5027 12.2812 12.0045 12.2812C12.5062 12.2812 12.9338 12.4598 13.287 12.8167C13.6403 13.1737 13.8173 13.6024 13.818 14.1026C13.8188 14.6029 13.6403 15.0304 13.2825 15.3851C12.9248 15.7399 12.4961 15.9169 11.9966 15.9161M7.92188 7.21875H16.0781L18.1774 3H5.82375L7.92188 7.21875ZM8.20987 21H15.7901C17.2376 21 18.4676 20.4934 19.4801 19.4801C20.4934 18.4669 21 17.2346 21 15.7834C21 15.1774 20.8961 14.5871 20.6884 14.0126C20.4806 13.4381 20.1806 12.915 19.7884 12.4432L16.3661 8.34375H7.63388L4.21163 12.4432C3.81938 12.915 3.51937 13.4381 3.31162 14.0126C3.10387 14.5864 3 15.1766 3 15.7834C3 17.2346 3.50662 18.4669 4.51987 19.4801C5.53312 20.4934 6.76312 21 8.20987 21Z" fill="currentColor"/>
</svg>
