<svg viewBox="0 0 23 23" fill="none" xmlns="http://www.w3.org/2000/svg">
<path fill-rule="evenodd" clip-rule="evenodd" d="M11.9345 8.39876L11.0417 9.29246L10.3547 9.97946C10.2721 10.0629 10.1737 10.129 10.0652 10.1741C9.95682 10.2191 9.84052 10.2422 9.72311 10.2419C9.60569 10.2416 9.4895 10.218 9.38129 10.1724C9.27308 10.1269 9.175 10.0603 9.09275 9.97646C9.01051 9.89266 8.94573 9.79336 8.90219 9.68431C8.85865 9.57527 8.83722 9.45866 8.83913 9.34126C8.84104 9.22386 8.86627 9.10801 8.91334 9.00044C8.96041 8.89287 9.02838 8.79573 9.11332 8.71466L11.1551 6.74816C11.1881 6.71656 11.2221 6.68666 11.2571 6.65846C11.4807 6.88854 11.656 7.16113 11.7724 7.46009C11.8889 7.75906 11.9442 8.07834 11.9351 8.39906M16.5461 14.8544L16.1381 15.4109C15.918 15.7108 15.6303 15.9547 15.2984 16.1228C14.9665 16.2908 14.5997 16.3784 14.2277 16.3784L13.8938 16.7123C13.5529 17.0534 13.0968 17.2546 12.615 17.2765C12.1333 17.2984 11.6608 17.1393 11.2904 16.8305L10.9277 16.5284L10.7171 16.739C10.4985 16.9576 10.2391 17.131 9.95348 17.2493C9.66791 17.3676 9.36182 17.4285 9.05272 17.4285C8.74361 17.4285 8.43753 17.3676 8.15195 17.2493C7.86637 17.131 7.60689 16.9576 7.38832 16.739L5.12933 14.48C5.01789 14.3686 4.88558 14.2801 4.73995 14.2198C4.59433 14.1595 4.43825 14.1284 4.28063 14.1284H0.427734V7.52846H4.13063C4.28825 7.52847 4.44433 7.49742 4.58995 7.43709C4.73558 7.37676 4.86789 7.28834 4.97933 7.17686L6.02482 6.13137C6.24769 5.90851 6.51227 5.73173 6.80346 5.61113C7.09465 5.49052 7.40674 5.42846 7.72192 5.42847H9.03352C9.29662 5.42847 9.55522 5.47167 9.79972 5.55417L7.86472 7.41776C7.60433 7.66274 7.39547 7.95723 7.25036 8.28398C7.10526 8.61072 7.02685 8.96314 7.01971 9.32058C7.01257 9.67803 7.07686 10.0333 7.20881 10.3656C7.34075 10.6978 7.5377 11.0004 7.7881 11.2556C8.0385 11.5108 8.33732 11.7134 8.66705 11.8516C8.99677 11.9898 9.35077 12.0608 9.70828 12.0604C10.0658 12.06 10.4196 11.9883 10.7491 11.8493C11.0785 11.7104 11.3769 11.5072 11.6267 11.2515L11.7521 11.1264L16.5251 14.8385L16.5452 14.8538" fill="currentColor"/>
<path d="M18.325 7.52846H22.0279V14.1284H17.0779L11.6779 9.92846L10.9909 10.6155C10.8244 10.7837 10.626 10.9171 10.4075 11.0079C10.1889 11.0988 9.95444 11.1453 9.71772 11.1448C9.48101 11.1443 9.24677 11.0967 9.02861 11.0048C8.81045 10.913 8.61272 10.7787 8.44692 10.6097C8.28111 10.4408 8.15055 10.2406 8.0628 10.0207C7.97505 9.80088 7.93188 9.56579 7.93579 9.32911C7.9397 9.09243 7.99061 8.85889 8.08557 8.64206C8.18053 8.42523 8.31764 8.22944 8.48893 8.06606L10.5307 6.09957C10.978 5.66891 11.5748 5.42836 12.1957 5.42847H14.7337C15.0489 5.42846 15.361 5.49052 15.6522 5.61113C15.9434 5.73173 16.2079 5.90851 16.4308 6.13137L17.4763 7.17686C17.5878 7.28834 17.7201 7.37676 17.8657 7.43709C18.0113 7.49742 18.1674 7.52847 18.325 7.52846Z" fill="currentColor"/>
</svg>
