<svg viewBox="0 0 24 24" fill="none" xmlns="http://www.w3.org/2000/svg">
<path d="M14.7239 22.66C19.1709 21.53 22.5359 17.689 22.9579 13H17.9769C17.7909 16.547 16.6209 19.847 14.7239 22.66ZM22.9579 11C22.5359 6.30997 19.1679 2.46797 14.7199 1.33797C16.6179 4.15197 17.7899 7.45197 17.9769 11H22.9579ZM9.28688 1.33797C4.83688 2.46797 1.47087 6.30997 1.04688 11H6.02887C6.21587 7.45197 7.38788 4.15197 9.28688 1.33797ZM1.04787 13C1.25556 15.2631 2.15847 17.4064 3.6327 19.136C5.10693 20.8655 7.08025 22.0965 9.28188 22.66C7.38488 19.847 6.21487 16.547 6.02887 13H1.04787ZM12.0029 22.962C9.69588 20.177 8.25087 16.741 8.03287 13H15.9739C15.7539 16.74 14.3099 20.177 12.0039 22.962M12.0029 1.04297C14.3099 3.82697 15.7529 7.26197 15.9729 11H8.03287C8.25287 7.26197 9.69688 3.82697 12.0029 1.04297Z" fill="currentColor"/>
</svg>
