<svg viewBox="0 0 16 16" fill="none" xmlns="http://www.w3.org/2000/svg">
<g clip-path="url(#clip0_2651_1854)">
<path d="M7.78627 0.21309C3.15072 0.455312 0.0907186 4.09087 0.284052 8.67531C0.368496 10.682 1.17516 12.4086 1.36627 14.3131C1.41516 14.8064 1.27294 15.4153 1.84183 15.6309C2.54183 15.8953 3.61516 15.4509 4.20183 15.0442C4.40183 14.9086 4.59294 14.7509 4.73961 14.5553C5.34627 14.9575 5.92183 15.3464 6.64405 15.5198C9.82405 16.282 13.3085 14.5375 14.8574 11.7353C17.7685 6.47087 13.8329 -0.102466 7.78627 0.21309ZM5.98627 11.1998C5.73516 11.3953 5.49294 11.662 5.21516 11.8153C4.81294 12.0309 4.6885 11.8064 4.53738 11.4509C4.06183 10.3198 4.00405 8.39309 4.28183 7.20865C4.65516 5.59753 5.90183 4.17976 7.61516 4.02865C9.3485 3.87531 10.9574 4.75531 11.6841 6.3442C13.2929 9.87976 9.17516 13.3709 5.98627 11.202V11.1998Z" fill="currentColor"/>
</g>
<defs>
<clipPath id="clip0_2651_1854">
<rect width="16" height="16" fill="white"/>
</clipPath>
</defs>
</svg>
