<svg viewBox="0 0 23 23" fill="none" xmlns="http://www.w3.org/2000/svg">
<path d="M20.1658 9.47609H18.8087V5.85704C18.8087 5.37712 18.618 4.91686 18.2787 4.57751C17.9393 4.23816 17.4791 4.04751 16.9992 4.04751H13.3801V2.69037C13.3801 2.09048 13.1418 1.51515 12.7176 1.09096C12.2934 0.666774 11.7181 0.428467 11.1182 0.428467C10.5183 0.428467 9.94299 0.666774 9.5188 1.09096C9.09461 1.51515 8.85631 2.09048 8.85631 2.69037V4.04751H5.23726C4.75734 4.04751 4.29708 4.23816 3.95773 4.57751C3.61838 4.91686 3.42773 5.37712 3.42773 5.85704V9.29513H4.78488C6.14202 9.29513 7.22773 10.3808 7.22773 11.738C7.22773 13.0951 6.14202 14.1808 4.78488 14.1808H3.42773V17.6189C3.42773 18.0989 3.61838 18.5591 3.95773 18.8985C4.29708 19.2378 4.75734 19.4285 5.23726 19.4285H8.67535V18.0713C8.67535 16.7142 9.76107 15.6285 11.1182 15.6285C12.4754 15.6285 13.5611 16.7142 13.5611 18.0713V19.4285H16.9992C17.4791 19.4285 17.9393 19.2378 18.2787 18.8985C18.618 18.5591 18.8087 18.0989 18.8087 17.6189V13.9999H20.1658C20.7657 13.9999 21.341 13.7616 21.7652 13.3374C22.1894 12.9132 22.4277 12.3379 22.4277 11.738C22.4277 11.1381 22.1894 10.5628 21.7652 10.1386C21.341 9.71439 20.7657 9.47609 20.1658 9.47609Z" fill="currentColor"/>
</svg>
