<svg viewBox="0 0 24 24" fill="none" xmlns="http://www.w3.org/2000/svg">
<path d="M13.5 11.25H10.75V8.2L10.751 8.002L10.753 7.959C10.7615 7.90744 10.7859 7.85984 10.8229 7.82289C10.8598 7.78594 10.9074 7.7615 10.959 7.753L11.002 7.751L11.2 7.75H13.5C13.9641 7.75 14.4092 7.93437 14.7374 8.26256C15.0656 8.59075 15.25 9.03587 15.25 9.5C15.25 9.96413 15.0656 10.4092 14.7374 10.7374C14.4092 11.0656 13.9641 11.25 13.5 11.25Z" fill="currentColor"/>
<path fill-rule="evenodd" clip-rule="evenodd" d="M22 12C22 17.523 17.523 22 12 22C6.477 22 2 17.523 2 12C2 6.477 6.477 2 12 2C17.523 2 22 6.477 22 12ZM8.25 14C8.25 13.8011 8.32902 13.6103 8.46967 13.4697C8.61032 13.329 8.80109 13.25 9 13.25H9.25V12.75H9C8.80109 12.75 8.61032 12.671 8.46967 12.5303C8.32902 12.3897 8.25 12.1989 8.25 12C8.25 11.8011 8.32902 11.6103 8.46967 11.4697C8.61032 11.329 8.80109 11.25 9 11.25H9.25V8.162C9.25 8.016 9.25 7.865 9.272 7.726C9.32991 7.36121 9.50175 7.0241 9.76292 6.76292C10.0241 6.50175 10.3612 6.32991 10.726 6.272C10.865 6.25 11.016 6.25 11.161 6.25H13.5C14.362 6.25 15.1886 6.59241 15.7981 7.2019C16.4076 7.8114 16.75 8.63805 16.75 9.5C16.75 10.362 16.4076 11.1886 15.7981 11.7981C15.1886 12.4076 14.362 12.75 13.5 12.75H10.75V13.25H12C12.1989 13.25 12.3897 13.329 12.5303 13.4697C12.671 13.6103 12.75 13.8011 12.75 14C12.75 14.1989 12.671 14.3897 12.5303 14.5303C12.3897 14.671 12.1989 14.75 12 14.75H10.75V17C10.75 17.1989 10.671 17.3897 10.5303 17.5303C10.3897 17.671 10.1989 17.75 10 17.75C9.80109 17.75 9.61032 17.671 9.46967 17.5303C9.32902 17.3897 9.25 17.1989 9.25 17V14.75H9C8.80109 14.75 8.61032 14.671 8.46967 14.5303C8.32902 14.3897 8.25 14.1989 8.25 14Z" fill="currentColor"/>
</svg>
