<svg viewBox="0 0 24 24" fill="none" xmlns="http://www.w3.org/2000/svg">
<path fill-rule="evenodd" clip-rule="evenodd" d="M22 4H2C1.73478 4 1.48043 4.10536 1.29289 4.29289C1.10536 4.48043 1 4.73478 1 5V17C1 17.2652 1.10536 17.5196 1.29289 17.7071C1.48043 17.8946 1.73478 18 2 18H22C22.2652 18 22.5196 17.8946 22.7071 17.7071C22.8946 17.5196 23 17.2652 23 17V5C23 4.73478 22.8946 4.48043 22.7071 4.29289C22.5196 4.10536 22.2652 4 22 4ZM9.5 7.5L16 11L9.5 14.5V7.5ZM7 19.75C6.80109 19.75 6.61032 19.829 6.46967 19.9697C6.32902 20.1103 6.25 20.3011 6.25 20.5C6.25 20.6989 6.32902 20.8897 6.46967 21.0303C6.61032 21.171 6.80109 21.25 7 21.25H17C17.1989 21.25 17.3897 21.171 17.5303 21.0303C17.671 20.8897 17.75 20.6989 17.75 20.5C17.75 20.3011 17.671 20.1103 17.5303 19.9697C17.3897 19.829 17.1989 19.75 17 19.75H7Z" fill="currentColor"/>
</svg>
