<svg viewBox="0 0 24 24" fill="none" xmlns="http://www.w3.org/2000/svg">
<path d="M21.2434 18.25H3.25656C2.65831 18.2493 2.08478 18.0113 1.66175 17.5882C1.23873 17.1652 1.00074 16.5917 1 15.9934V6.25656C1.00074 5.65831 1.23873 5.08478 1.66175 4.66175C2.08478 4.23873 2.65831 4.00074 3.25656 4H21.2434C21.8417 4.00074 22.4152 4.23873 22.8382 4.66175C23.2613 5.08478 23.4993 5.65831 23.5 6.25656V15.9934C23.4993 16.5917 23.2613 17.1652 22.8382 17.5882C22.4152 18.0113 21.8417 18.2493 21.2434 18.25Z" fill="currentColor"/>
<path d="M6 20H18H6Z" fill="currentColor"/>
<path d="M6 20H18" stroke="currentColor" stroke-miterlimit="10" stroke-linecap="round"/>
</svg>
