<svg viewBox="0 0 20 20" fill="none" xmlns="http://www.w3.org/2000/svg">
<path d="M17.92 15.3175H16.0183C15.2992 15.3175 15.0825 14.735 13.7933 13.445C12.6667 12.3592 12.1908 12.2242 11.9058 12.2242C11.5117 12.2242 11.4042 12.3325 11.4042 12.875V14.585C11.4042 15.0475 11.2542 15.3184 10.0458 15.3184C8.87358 15.2396 7.7368 14.8835 6.72914 14.2793C5.72148 13.6752 4.87177 12.8403 4.25 11.8434C2.77418 10.0056 1.74701 7.84907 1.25 5.54504C1.25 5.26004 1.35833 5.0017 1.90167 5.0017H3.80167C4.29 5.0017 4.46583 5.2192 4.6575 5.7217C5.58 8.4367 7.15417 10.7984 7.79333 10.7984C8.03833 10.7984 8.145 10.69 8.145 10.0792V7.28254C8.06417 6.0067 7.38667 5.8992 7.38667 5.43754C7.39524 5.31574 7.45095 5.20208 7.54198 5.1207C7.63301 5.03932 7.75217 4.99663 7.87417 5.0017H10.8608C11.2692 5.0017 11.4042 5.20504 11.4042 5.69337V9.46837C11.4042 9.87587 11.5792 10.0109 11.7025 10.0109C11.9475 10.0109 12.1358 9.87587 12.585 9.42754C13.5474 8.25309 14.334 6.94496 14.92 5.5442C14.9797 5.37584 15.093 5.2317 15.2424 5.13386C15.3919 5.03603 15.5693 4.98989 15.7475 5.00254H17.6483C18.2183 5.00254 18.3392 5.28754 18.2183 5.6942C17.5268 7.24278 16.6713 8.71284 15.6667 10.0792C15.4617 10.3917 15.38 10.5542 15.6667 10.9209C15.855 11.2059 16.5217 11.7625 16.9692 12.2917C17.6208 12.9417 18.1617 13.6934 18.5708 14.5167C18.7342 15.0467 18.4625 15.3175 17.92 15.3175Z" fill="currentColor"/>
</svg>
